<svg width="1512" height="1024" viewBox="0 0 1512 1024" fill="none" xmlns="http://www.w3.org/2000/svg">
<g clip-path="url(#clip0_276_302)">
<rect width="1512" height="1024" fill="#FFC1F6"/>
<path d="M160.641 501H105.587C102.722 501 101.29 499.747 101.29 497.24L100.753 122.606C100.753 119.742 102.185 118.31 105.05 118.31H154.732L247.652 335.033L244.967 122.606C244.967 119.742 246.578 118.31 249.801 118.31H304.317C306.466 118.31 307.54 119.742 307.54 122.606L308.077 497.777C308.077 499.926 307.182 501 305.392 501H257.052L161.715 298.51L165.743 496.703C165.743 499.568 164.042 501 160.641 501ZM470.553 501H407.442C406.189 501 405.562 500.284 405.562 498.852L406.1 342.553L332.516 120.458C332.158 119.026 332.695 118.31 334.127 118.31H395.357C397.148 118.31 398.222 119.026 398.58 120.458L439.132 268.432L480.489 120.458C480.847 119.026 481.743 118.31 483.175 118.31H544.942C546.375 118.31 546.912 119.026 546.554 120.458L472.164 340.404L472.701 498.852C472.701 500.284 471.985 501 470.553 501ZM641.085 501H578.78C577.348 501 576.632 500.105 576.632 498.314L577.169 120.458C577.169 119.026 578.064 118.31 579.854 118.31H641.085C642.875 118.31 643.771 119.026 643.771 120.458L643.233 270.043H725.68V120.458C725.68 119.026 726.396 118.31 727.828 118.31H789.059C790.849 118.31 791.744 119.026 791.744 120.458L792.818 498.314C792.818 500.105 791.923 501 790.133 501H728.365C726.575 501 725.68 500.105 725.68 498.314V336.645H643.233V498.314C643.233 500.105 642.517 501 641.085 501ZM1017.6 501H839.815C838.383 501 837.667 500.105 837.667 498.314L838.204 120.458C838.204 119.026 838.92 118.31 840.353 118.31H1017.06C1018.49 118.31 1019.21 119.205 1019.21 120.995V182.494C1019.21 183.926 1018.49 184.643 1017.06 184.643H904.269V270.58H1017.06C1018.49 270.58 1019.21 271.296 1019.21 272.729L1019.75 335.033C1019.75 336.465 1019.03 337.182 1017.6 337.182H904.269V433.324H1017.6C1019.03 433.324 1019.75 434.219 1019.75 436.01V498.852C1019.75 500.284 1019.03 501 1017.6 501ZM1169.87 500.463L1071.31 501C1069.52 501 1068.62 500.105 1068.62 498.314L1069.7 120.458C1069.7 119.026 1070.41 118.31 1071.85 118.31L1174.7 117.772C1195.11 117.235 1213.55 121.89 1230.03 131.737C1246.68 141.584 1259.92 154.923 1269.77 171.752C1279.8 188.402 1284.81 206.843 1284.81 227.074V384.984C1284.81 406.111 1279.71 425.447 1269.5 442.992C1259.12 460.359 1245.33 474.234 1228.15 484.618C1210.96 494.823 1191.53 500.105 1169.87 500.463ZM1174.7 183.568L1136.3 184.105L1135.76 433.324H1169.87C1183.48 433.324 1194.93 428.58 1204.24 419.091C1213.55 409.602 1218.21 398.233 1218.21 384.984V226.537C1218.21 214.9 1213.91 204.784 1205.32 196.19C1196.72 187.418 1186.52 183.21 1174.7 183.568ZM1379.88 399.755H1342.28C1340.67 399.755 1339.77 398.86 1339.6 397.069L1328.05 270.58V120.995C1328.05 119.205 1328.76 118.31 1330.2 118.31H1391.96C1393.75 118.31 1394.65 119.205 1394.65 120.995L1394.11 270.58L1382.56 397.069C1382.39 398.86 1381.49 399.755 1379.88 399.755ZM1391.96 501H1330.2C1328.76 501 1328.05 500.105 1328.05 498.314V438.427C1328.05 436.815 1328.76 436.01 1330.2 436.01H1391.96C1393.4 436.01 1394.11 436.815 1394.11 438.427V498.314C1394.11 500.105 1393.4 501 1391.96 501Z" fill="#EE567F" fill-opacity="0.5"/>
<path d="M98.058 237.483C97.2561 247.976 104.947 256.89 110.499 265.831C115.387 273.708 118.862 282.464 120.697 291.551C121.972 297.865 123.483 305.62 129.619 307.58C132.052 308.357 134.709 307.948 137.163 307.223C149.844 303.486 159.3 290.794 159.255 277.576C159.243 274.016 158.64 270.286 160.045 267.014C161.207 264.309 163.573 262.336 165.893 260.526C176.852 251.973 189.103 244.028 195.55 231.708C197.514 227.954 198.871 223.467 197.34 219.515C196.065 216.226 193.056 213.983 190.192 211.917C181.833 205.9 172.243 199.566 162.086 201.287C150.354 203.271 142.566 215.315 131.04 218.263C123.706 220.138 115.942 213.477 109.722 215.485C103.501 217.494 98.4872 231.87 98.058 237.483Z" fill="#A20045" fill-opacity="0.8"/>
<g clip-path="url(#clip1_276_302)">
<path d="M252.434 120.939C256.791 119.016 261.612 118.421 266.368 118.154C276.448 117.588 286.85 118.457 295.989 122.737C299.646 124.451 303.394 127.191 303.936 131.189C304.412 134.694 302.266 137.968 300.172 140.824C297.632 144.281 295.013 147.693 292.009 150.758C287.968 154.874 282.055 158.524 276.706 156.357C273.184 154.929 271.037 151.346 269.681 147.802C268.324 144.258 267.47 140.454 265.35 137.302C260.255 129.722 251.767 130.729 245 126.58C246.553 123.982 249.637 122.174 252.434 120.939Z" fill="#A20045" fill-opacity="0.8"/>
</g>
<path d="M259.657 473.378C268.124 476.59 279.111 475.189 284.219 467.765C286.263 464.794 287.168 461.21 287.863 457.682C289.786 447.931 289.931 436.606 282.957 429.471C276.607 422.98 265.673 421.478 261.079 413.67C256.97 406.693 259.809 397.782 263.587 390.621C267.364 383.46 272.16 376.19 271.769 368.121C271.522 363.046 269.192 358.272 266.232 354.119C261.846 347.971 255.101 342.535 247.515 343.032C239.113 343.581 233.017 350.972 228.449 357.978C224.763 363.633 221.346 369.462 218.211 375.437C214.832 381.882 211.709 389.179 213.544 396.204C215.414 403.365 221.867 408.229 226.739 413.832C244.935 434.746 228.894 461.703 259.653 473.374L259.657 473.378Z" fill="#A20045" fill-opacity="0.8"/>
<path d="M100.918 460.127C100.749 454.035 103.081 446.707 107.267 444.001C108.943 442.918 110.724 442.674 112.447 442.567C117.21 442.269 122.421 443.344 124.617 448.826C126.614 453.818 125.621 461.411 128.491 465.345C131.056 468.862 135.575 467.854 139.437 466.026C143.298 464.198 147.367 461.689 151.003 462.791C153.29 463.485 155.119 465.564 156.566 468.008C158.708 471.628 160.161 476.779 158.767 481.887C157.223 487.546 152.9 490.926 148.987 493.308C145.83 495.229 142.634 496.95 139.415 498.463C135.942 500.094 132.119 501.463 129.183 499.487C126.19 497.473 124.954 492.58 123.136 488.686C116.353 474.143 101.536 482.262 100.92 460.13L100.918 460.127Z" fill="#A20045" fill-opacity="0.8"/>
<path d="M475.669 148.384C480.713 139.713 487.826 132.084 496.346 126.207C501.297 122.794 506.855 119.92 512.939 119.017C519.021 118.115 525.703 119.43 530.086 123.437C534.469 127.444 535.866 134.356 532.407 139.093C531.034 140.973 529.042 142.402 526.912 143.52C518.73 147.812 508.817 147.706 499.705 149.817C498.108 150.186 496.278 150.859 495.893 152.344C495.568 153.606 496.458 154.825 496.827 156.074C498.082 160.343 493.318 163.909 489.178 166.114C487.747 166.877 486.207 167.66 484.56 167.575C482.153 167.451 480.33 165.532 479.094 163.613C476.924 160.24 475.137 157.329 470.495 157.18C472.109 154.26 473.964 151.316 475.667 148.385L475.669 148.384Z" fill="#A20045" fill-opacity="0.8"/>
<path d="M440.749 450.514C440.175 447.656 438.905 444.089 441.374 442.305C442.053 441.815 442.906 441.587 443.746 441.418C448.744 440.41 454.572 441.378 457.757 445.1C459.638 447.297 460.375 450.157 460.696 452.949C462.066 464.87 456.548 476.936 447.657 485.617C445.015 488.197 441.974 490.577 438.318 491.644C434.146 492.863 429.578 492.239 425.454 490.886C420.253 489.18 409.362 483.969 408.069 478.27C406.898 473.104 413.3 470.38 417.853 469.935C423.025 469.428 427.151 470.215 431.903 467.495C437.953 464.034 442.087 457.187 440.747 450.514L440.749 450.514Z" fill="#A20045" fill-opacity="0.8"/>
<path d="M407.221 283.771C413.794 286.204 422.323 285.143 426.288 279.519C427.876 277.268 428.578 274.553 429.118 271.88C430.61 264.493 430.723 255.913 425.309 250.508C420.379 245.591 411.891 244.453 408.324 238.538C405.135 233.252 407.339 226.501 410.271 221.076C413.204 215.651 416.927 210.144 416.623 204.031C416.431 200.186 414.623 196.57 412.325 193.424C408.92 188.766 403.683 184.647 397.795 185.024C391.272 185.44 386.54 191.039 382.993 196.347C380.132 200.631 377.479 205.047 375.045 209.573C372.423 214.456 369.997 219.984 371.422 225.306C372.874 230.731 377.883 234.416 381.666 238.66C395.792 254.504 383.338 274.926 407.218 283.768L407.221 283.771Z" fill="#A20045" fill-opacity="0.8"/>
<path d="M741.806 493.03C744.844 493.371 747.556 494.432 749.837 496.178C751.589 497.517 753.326 499.279 756.168 498.04C757.669 497.385 759.277 495.959 760.834 494.556C768.181 487.938 776.096 480.282 781.183 470.304C786.479 459.916 787.248 449.451 784.907 443.012C782.566 436.572 777.609 433.455 772.473 430.98C769.63 429.61 766.461 428.412 762.326 430.462C752.245 435.455 742.2 455.82 736.392 467.905C727.052 487.344 731.895 491.922 741.805 493.03L741.806 493.03Z" fill="#A20045" fill-opacity="0.8"/>
<path d="M639.876 166.562C642.344 179.365 640.145 192.745 635.472 204.916C632.943 211.504 629.614 217.926 624.61 222.901C616.104 231.355 602.887 234.723 591.369 231.372C585.731 229.731 580.284 226.316 577.802 220.994C574.244 213.367 577.661 204.325 582.181 197.228C586.701 190.131 592.469 183.423 594.06 175.162C595.927 165.469 591.668 155.801 589.423 146.189C587.17 136.574 587.885 124.571 596.266 119.359C601.148 116.323 607.946 116.676 612.512 120.171C617.792 124.213 617.036 130.753 620.579 135.789C628.202 146.627 637.108 152.212 639.877 166.559L639.876 166.562Z" fill="#A20045" fill-opacity="0.8"/>
<path d="M742.636 253.132C741.642 248.183 739.443 242.008 743.719 238.918C744.895 238.07 746.373 237.674 747.827 237.381C756.482 235.637 766.573 237.313 772.089 243.757C775.347 247.562 776.623 252.515 777.179 257.349C779.55 277.994 769.995 298.888 754.599 313.92C750.024 318.387 744.758 322.509 738.428 324.357C731.203 326.466 723.292 325.387 716.151 323.044C707.146 320.09 688.285 311.065 686.047 301.197C684.018 292.251 695.105 287.534 702.99 286.763C711.945 285.886 719.09 287.248 727.319 282.538C737.795 276.546 744.954 264.688 742.633 253.132L742.636 253.132Z" fill="#A20045" fill-opacity="0.8"/>
<g clip-path="url(#clip2_276_302)">
<path d="M625.576 346.249C629.805 352.358 632.129 359.567 633.93 366.774C637.747 382.047 639.455 398.234 635.551 413.487C633.987 419.592 630.873 426.136 624.89 428.138C619.644 429.896 613.987 427.569 608.987 425.199C602.933 422.324 596.924 419.312 591.337 415.611C583.831 410.629 576.494 402.642 578.26 393.813C579.424 388 584.301 383.662 589.349 380.544C594.397 377.427 599.992 375.003 604.214 370.831C614.37 360.804 610.341 348.099 614.736 336.517C619.183 338.134 622.861 342.327 625.576 346.249Z" fill="#A20045" fill-opacity="0.8"/>
</g>
<path d="M966.77 481.95C973.698 475.945 977.668 465.473 973.407 457.343C971.703 454.09 968.902 451.557 966.053 449.238C958.177 442.828 948.036 437.245 938.282 440.029C929.405 442.566 922.843 451.593 913.614 451.93C905.368 452.234 898.685 445.411 894.028 438.594C889.371 431.777 885.101 423.999 877.64 420.463C872.947 418.239 867.533 418.018 862.379 418.658C854.747 419.609 846.633 423.006 843.468 430.01C839.962 437.768 843.721 446.762 847.863 454.21C851.205 460.22 854.833 466.074 858.726 471.747C862.928 477.863 868.019 484.163 875.227 485.909C882.574 487.69 890.033 484.278 897.405 482.631C924.927 476.475 941.591 503.761 966.765 481.951L966.77 481.95Z" fill="#A20045" fill-opacity="0.8"/>
<g clip-path="url(#clip3_276_302)">
<path d="M958.064 274.165C962.79 272.094 968.02 271.453 973.179 271.166C984.113 270.556 995.397 271.492 1005.31 276.101C1009.28 277.947 1013.34 280.898 1013.93 285.203C1014.45 288.978 1012.12 292.504 1009.85 295.579C1007.09 299.302 1004.25 302.977 1000.99 306.277C996.61 310.71 990.195 314.641 984.393 312.307C980.572 310.769 978.244 306.911 976.772 303.095C975.301 299.278 974.374 295.181 972.074 291.787C966.548 283.624 957.341 284.708 950 280.24C951.685 277.442 955.03 275.495 958.064 274.165Z" fill="#A20045" fill-opacity="0.8"/>
</g>
<path d="M859.164 149.25C865.975 133.124 873.841 124.472 881.416 121.189C885.516 119.412 889.648 119.159 893.229 123.127C899.316 129.874 903.282 149.427 903.205 172.305C903.166 183.504 902.101 196.024 899.499 205.224C895.769 218.413 890.151 220.947 885.452 219.78C880.754 218.613 876.078 214.946 871.185 219.886C865.443 225.685 860.677 241.971 855.625 254.749C850.574 267.545 843.714 277.464 839.47 267.922C836.997 262.365 836.13 250.369 837.378 239.288C838.822 226.475 842.617 221.699 844.893 210.942C849.79 187.795 851.532 167.326 859.163 149.25L859.164 149.25Z" fill="#A20045" fill-opacity="0.8"/>
<path d="M1068.04 431.868C1067.52 438.732 1072.52 444.563 1076.12 450.413C1079.3 455.566 1081.56 461.294 1082.75 467.239C1083.58 471.369 1084.56 476.443 1088.55 477.725C1090.13 478.234 1091.86 477.966 1093.46 477.492C1101.7 475.047 1107.84 466.744 1107.82 458.096C1107.81 455.767 1107.42 453.327 1108.33 451.187C1109.08 449.417 1110.62 448.127 1112.13 446.942C1119.25 441.347 1127.22 436.149 1131.41 428.09C1132.68 425.634 1133.57 422.698 1132.57 420.112C1131.74 417.961 1129.79 416.493 1127.92 415.142C1122.49 411.205 1116.26 407.062 1109.66 408.188C1102.03 409.486 1096.97 417.365 1089.48 419.294C1084.71 420.52 1079.66 416.162 1075.62 417.476C1071.58 418.79 1068.32 428.196 1068.04 431.868Z" fill="#A20045" fill-opacity="0.8"/>
<path d="M1249.32 233.79C1241.71 229.471 1231.01 229.241 1225.06 235.672C1222.67 238.244 1221.29 241.574 1220.11 244.878C1216.86 254.013 1215.07 264.922 1220.69 272.812C1225.81 279.991 1236.03 283.015 1239.27 291.212C1242.18 298.537 1238.17 306.729 1233.53 313.097C1228.88 319.465 1223.24 325.791 1222.44 333.634C1221.94 338.568 1223.47 343.511 1225.69 347.945C1228.98 354.511 1234.63 360.729 1241.94 361.341C1250.04 362.02 1256.94 355.765 1262.32 349.66C1266.66 344.733 1270.77 339.599 1274.63 334.284C1278.8 328.549 1282.84 321.957 1282.11 314.912C1281.37 307.732 1275.92 302.108 1272.08 296C1257.75 273.195 1276.99 249.486 1249.32 233.794L1249.32 233.79Z" fill="#A20045" fill-opacity="0.8"/>
<g clip-path="url(#clip4_276_302)">
<path d="M1087.69 132.467C1092.79 130.198 1098.43 129.497 1103.99 129.182C1115.78 128.514 1127.94 129.538 1138.63 134.587C1142.91 136.609 1147.29 139.841 1147.92 144.556C1148.48 148.69 1145.97 152.552 1143.52 155.92C1140.55 159.998 1137.49 164.022 1133.98 167.637C1129.25 172.492 1122.34 176.798 1116.08 174.241C1111.96 172.557 1109.45 168.331 1107.86 164.151C1106.28 159.971 1105.28 155.484 1102.8 151.766C1096.84 142.826 1086.91 144.013 1079 139.12C1080.82 136.055 1084.42 133.923 1087.69 132.467Z" fill="#A20045" fill-opacity="0.8"/>
</g>
<path d="M1365.78 144.712C1365.16 141.618 1363.79 137.758 1366.46 135.826C1367.2 135.295 1368.12 135.048 1369.03 134.865C1374.44 133.775 1380.75 134.822 1384.2 138.851C1386.23 141.23 1387.03 144.326 1387.38 147.348C1388.86 160.255 1382.89 173.317 1373.26 182.715C1370.4 185.508 1367.11 188.084 1363.15 189.24C1358.64 190.559 1353.69 189.884 1349.23 188.419C1343.6 186.572 1331.8 180.931 1330.41 174.761C1329.14 169.168 1336.07 166.219 1341 165.737C1346.6 165.189 1351.06 166.041 1356.21 163.096C1362.76 159.35 1367.23 151.937 1365.78 144.712L1365.78 144.712Z" fill="#A20045" fill-opacity="0.8"/>
<g clip-path="url(#clip5_276_302)">
<path d="M1374.13 491.092C1370.54 492.317 1366.67 492.457 1362.88 492.343C1354.84 492.1 1346.64 490.699 1339.68 486.683C1336.9 485.075 1334.11 482.648 1333.95 479.445C1333.82 476.636 1335.74 474.191 1337.6 472.073C1339.85 469.509 1342.16 466.987 1344.76 464.765C1348.25 461.783 1353.19 459.297 1357.29 461.381C1359.98 462.753 1361.44 465.737 1362.28 468.637C1363.11 471.536 1363.53 474.608 1365 477.249C1368.52 483.601 1375.33 483.386 1380.41 487.135C1379 489.086 1376.43 490.306 1374.13 491.092Z" fill="#A20045" fill-opacity="0.8"/>
</g>
<path d="M1328.04 290.504C1327.54 296.976 1332.31 302.474 1335.75 307.989C1338.78 312.848 1340.93 318.249 1342.07 323.854C1342.86 327.748 1343.8 332.532 1347.6 333.741C1349.11 334.22 1350.76 333.968 1352.28 333.521C1360.14 331.215 1366.01 323.387 1365.98 315.233C1365.97 313.038 1365.6 310.737 1366.47 308.719C1367.19 307.05 1368.65 305.834 1370.09 304.717C1376.89 299.441 1384.48 294.54 1388.48 286.942C1389.7 284.626 1390.54 281.858 1389.59 279.42C1388.8 277.392 1386.93 276.008 1385.16 274.734C1379.98 271.022 1374.03 267.115 1367.73 268.177C1360.46 269.401 1355.63 276.83 1348.48 278.648C1343.94 279.805 1339.12 275.696 1335.27 276.935C1331.41 278.174 1328.3 287.042 1328.04 290.504Z" fill="#A20045" fill-opacity="0.8"/>
</g>
<defs>
<clipPath id="clip0_276_302">
<rect width="1512" height="1024" fill="white"/>
</clipPath>
<clipPath id="clip1_276_302">
<rect width="59" height="39" fill="white" transform="translate(245 118)"/>
</clipPath>
<clipPath id="clip2_276_302">
<rect width="92" height="61" fill="white" transform="translate(627.918 334) rotate(79.1912)"/>
</clipPath>
<clipPath id="clip3_276_302">
<rect width="64" height="42" fill="white" transform="translate(950 271)"/>
</clipPath>
<clipPath id="clip4_276_302">
<rect width="69" height="46" fill="white" transform="translate(1079 129)"/>
</clipPath>
<clipPath id="clip5_276_302">
<rect width="47" height="31" fill="white" transform="translate(1379.83 493.93) rotate(-175.063)"/>
</clipPath>
</defs>
</svg>
