<svg width="1512" height="1024" viewBox="0 0 1512 1024" fill="none" xmlns="http://www.w3.org/2000/svg">
<g clip-path="url(#clip0_276_302)">
<rect width="1512" height="1024" fill="#FFC1F6"/>
<path d="M213.219 485H163.17C160.566 485 159.264 483.861 159.264 481.582L158.775 141.006C158.775 138.402 160.077 137.1 162.682 137.1H207.848L292.32 334.121L289.879 141.006C289.879 138.402 291.344 137.1 294.273 137.1H343.834C345.787 137.1 346.764 138.402 346.764 141.006L347.252 482.07C347.252 484.023 346.438 485 344.811 485H300.865L214.195 300.918L217.857 481.094C217.857 483.698 216.311 485 213.219 485ZM494.957 485H437.584C436.445 485 435.875 484.349 435.875 483.047L436.363 340.957L369.469 139.053C369.143 137.751 369.632 137.1 370.934 137.1H426.598C428.225 137.1 429.202 137.751 429.527 139.053L466.393 273.574L503.99 139.053C504.316 137.751 505.13 137.1 506.432 137.1H562.584C563.886 137.1 564.374 137.751 564.049 139.053L496.422 339.004L496.91 483.047C496.91 484.349 496.259 485 494.957 485ZM649.986 485H593.346C592.044 485 591.393 484.186 591.393 482.559L591.881 139.053C591.881 137.751 592.695 137.1 594.322 137.1H649.986C651.614 137.1 652.428 137.751 652.428 139.053L651.939 275.039H726.891V139.053C726.891 137.751 727.542 137.1 728.844 137.1H784.508C786.135 137.1 786.949 137.751 786.949 139.053L787.926 482.559C787.926 484.186 787.112 485 785.484 485H729.332C727.704 485 726.891 484.186 726.891 482.559V335.586H651.939V482.559C651.939 484.186 651.288 485 649.986 485ZM992.271 485H830.65C829.348 485 828.697 484.186 828.697 482.559L829.186 139.053C829.186 137.751 829.837 137.1 831.139 137.1H991.783C993.085 137.1 993.736 137.913 993.736 139.541V195.449C993.736 196.751 993.085 197.402 991.783 197.402H889.244V275.527H991.783C993.085 275.527 993.736 276.178 993.736 277.48L994.225 334.121C994.225 335.423 993.574 336.074 992.271 336.074H889.244V423.477H992.271C993.574 423.477 994.225 424.29 994.225 425.918V483.047C994.225 484.349 993.574 485 992.271 485ZM1130.7 484.512L1041.1 485C1039.47 485 1038.66 484.186 1038.66 482.559L1039.63 139.053C1039.63 137.751 1040.29 137.1 1041.59 137.1L1135.09 136.611C1153.65 136.123 1170.41 140.355 1185.39 149.307C1200.52 158.258 1212.57 170.384 1221.52 185.684C1230.63 200.82 1235.19 217.585 1235.19 235.977V379.531C1235.19 398.737 1230.55 416.315 1221.28 432.266C1211.84 448.053 1199.3 460.667 1183.68 470.107C1168.05 479.385 1150.39 484.186 1130.7 484.512ZM1135.09 196.426L1100.18 196.914L1099.69 423.477H1130.7C1143.07 423.477 1153.49 419.163 1161.95 410.537C1170.41 401.911 1174.64 391.576 1174.64 379.531V235.488C1174.64 224.909 1170.74 215.713 1162.93 207.9C1155.11 199.925 1145.84 196.1 1135.09 196.426ZM1321.62 392.959H1287.44C1285.97 392.959 1285.16 392.145 1285 390.518L1274.5 275.527V139.541C1274.5 137.913 1275.15 137.1 1276.45 137.1H1332.6C1334.23 137.1 1335.04 137.913 1335.04 139.541L1334.56 275.527L1324.06 390.518C1323.9 392.145 1323.08 392.959 1321.62 392.959ZM1332.6 485H1276.45C1275.15 485 1274.5 484.186 1274.5 482.559V428.115C1274.5 426.65 1275.15 425.918 1276.45 425.918H1332.6C1333.91 425.918 1334.56 426.65 1334.56 428.115V482.559C1334.56 484.186 1333.91 485 1332.6 485Z" fill="#EE567F" fill-opacity="0.5"/>
<path d="M160.57 253.374C159.845 262.854 166.794 270.907 171.81 278.986C176.227 286.103 179.366 294.013 181.024 302.224C182.176 307.928 183.541 314.935 189.085 316.706C191.284 317.408 193.684 317.039 195.901 316.384C207.358 313.007 215.902 301.54 215.861 289.597C215.85 286.381 215.305 283.011 216.575 280.055C217.625 277.611 219.762 275.829 221.858 274.193C231.76 266.466 242.828 259.287 248.653 248.157C250.428 244.765 251.654 240.711 250.271 237.14C249.118 234.169 246.399 232.142 243.812 230.276C236.26 224.838 227.596 219.116 218.419 220.671C207.819 222.464 200.782 233.345 190.369 236.009C183.742 237.703 176.728 231.684 171.108 233.499C165.488 235.314 160.958 248.303 160.57 253.374Z" fill="#A20045" fill-opacity="0.8"/>
<g clip-path="url(#clip1_276_302)">
<path d="M300.048 148.077C303.984 146.339 308.34 145.802 312.637 145.56C321.744 145.049 331.142 145.834 339.399 149.701C342.704 151.25 346.09 153.725 346.579 157.337C347.01 160.504 345.071 163.462 343.178 166.042C340.884 169.166 338.517 172.248 335.803 175.017C332.152 178.737 326.81 182.034 321.977 180.076C318.795 178.786 316.856 175.549 315.63 172.347C314.404 169.145 313.633 165.708 311.717 162.86C307.114 156.012 299.445 156.921 293.331 153.173C294.734 150.825 297.521 149.192 300.048 148.077Z" fill="#A20045" fill-opacity="0.8"/>
</g>
<path d="M306.574 466.505C314.224 469.406 324.151 468.141 328.765 461.433C330.613 458.749 331.43 455.511 332.058 452.323C333.796 443.513 333.926 433.281 327.626 426.835C321.888 420.971 312.01 419.613 307.859 412.559C304.147 406.255 306.712 398.204 310.125 391.734C313.538 385.264 317.871 378.696 317.517 371.406C317.294 366.821 315.189 362.507 312.514 358.755C308.552 353.201 302.458 348.289 295.604 348.738C288.013 349.234 282.505 355.912 278.378 362.242C275.047 367.351 271.961 372.617 269.128 378.015C266.076 383.839 263.253 390.431 264.912 396.778C266.601 403.248 272.431 407.643 276.833 412.705C293.273 431.601 278.78 455.956 306.571 466.501L306.574 466.505Z" fill="#A20045" fill-opacity="0.8"/>
<path d="M163.155 454.534C163.002 449.03 165.108 442.409 168.891 439.965C170.404 438.987 172.014 438.766 173.571 438.669C177.874 438.4 182.582 439.371 184.566 444.324C186.37 448.834 185.473 455.694 188.066 459.249C190.383 462.426 194.467 461.516 197.955 459.864C201.444 458.213 205.12 455.946 208.405 456.942C210.472 457.568 212.124 459.447 213.432 461.655C215.367 464.925 216.68 469.58 215.42 474.195C214.025 479.307 210.119 482.362 206.584 484.513C203.731 486.249 200.844 487.804 197.936 489.171C194.798 490.644 191.344 491.881 188.691 490.096C185.987 488.277 184.87 483.856 183.228 480.337C177.1 467.198 163.713 474.533 163.156 454.537L163.155 454.534Z" fill="#A20045" fill-opacity="0.8"/>
<path d="M501.742 172.873C506.299 165.039 512.725 158.146 520.424 152.837C524.896 149.753 529.918 147.156 535.414 146.34C540.91 145.525 546.947 146.713 550.907 150.334C554.867 153.954 556.129 160.199 553.004 164.479C551.763 166.177 549.964 167.469 548.039 168.478C540.647 172.357 531.691 172.261 523.458 174.168C522.015 174.501 520.362 175.109 520.014 176.451C519.72 177.591 520.525 178.693 520.858 179.821C521.992 183.678 517.688 186.9 513.947 188.892C512.654 189.582 511.263 190.289 509.775 190.212C507.6 190.1 505.953 188.367 504.836 186.632C502.876 183.585 501.261 180.955 497.067 180.821C498.525 178.182 500.201 175.522 501.74 172.874L501.742 172.873Z" fill="#A20045" fill-opacity="0.8"/>
<path d="M470.192 445.848C469.673 443.266 468.526 440.044 470.757 438.432C471.37 437.989 472.141 437.783 472.9 437.63C477.416 436.72 482.681 437.594 485.559 440.957C487.258 442.942 487.924 445.526 488.214 448.048C489.452 458.819 484.466 469.721 476.433 477.564C474.047 479.894 471.299 482.045 467.996 483.009C464.227 484.11 460.099 483.547 456.373 482.324C451.675 480.783 441.834 476.074 440.666 470.926C439.608 466.258 445.392 463.797 449.506 463.395C454.178 462.937 457.906 463.648 462.2 461.19C467.666 458.064 471.401 451.877 470.19 445.848L470.192 445.848Z" fill="#A20045" fill-opacity="0.8"/>
<path d="M439.899 295.195C445.838 297.393 453.544 296.434 457.126 291.352C458.56 289.319 459.195 286.866 459.683 284.451C461.031 277.777 461.133 270.025 456.241 265.142C451.787 260.699 444.119 259.671 440.896 254.326C438.014 249.551 440.006 243.452 442.655 238.55C445.305 233.649 448.669 228.673 448.394 223.15C448.221 219.676 446.587 216.409 444.51 213.566C441.434 209.358 436.703 205.637 431.383 205.977C425.489 206.353 421.214 211.412 418.01 216.208C415.424 220.078 413.028 224.068 410.829 228.157C408.459 232.569 406.268 237.563 407.555 242.372C408.867 247.273 413.393 250.603 416.81 254.437C429.573 268.752 418.322 287.203 439.896 295.192L439.899 295.195Z" fill="#A20045" fill-opacity="0.8"/>
<path d="M742.197 484.261C744.942 484.569 747.392 485.527 749.453 487.105C751.036 488.315 752.605 489.906 755.172 488.787C756.529 488.195 757.982 486.907 759.389 485.64C766.026 479.66 773.178 472.744 777.773 463.728C782.558 454.342 783.253 444.888 781.138 439.07C779.023 433.251 774.544 430.435 769.904 428.2C767.335 426.961 764.472 425.879 760.736 427.731C751.629 432.242 742.553 450.642 737.305 461.561C728.867 479.124 733.242 483.26 742.196 484.26L742.197 484.261Z" fill="#A20045" fill-opacity="0.8"/>
<path d="M650.103 189.296C652.334 200.864 650.347 212.952 646.125 223.949C643.839 229.901 640.832 235.703 636.311 240.198C628.625 247.836 616.685 250.879 606.278 247.851C601.184 246.369 596.262 243.283 594.02 238.475C590.806 231.584 593.893 223.415 597.977 217.003C602.061 210.591 607.271 204.53 608.709 197.067C610.396 188.309 606.548 179.574 604.52 170.889C602.484 162.203 603.13 151.358 610.702 146.649C615.113 143.905 621.255 144.225 625.38 147.383C630.151 151.034 629.468 156.943 632.669 161.493C639.556 171.285 647.603 176.331 650.104 189.293L650.103 189.296Z" fill="#A20045" fill-opacity="0.8"/>
<path d="M742.949 267.513C742.051 263.042 740.064 257.463 743.927 254.671C744.99 253.904 746.325 253.547 747.639 253.282C755.458 251.707 764.575 253.22 769.559 259.043C772.503 262.481 773.656 266.956 774.158 271.323C776.3 289.975 767.667 308.853 753.757 322.434C749.624 326.47 744.865 330.194 739.146 331.864C732.619 333.77 725.472 332.795 719.019 330.677C710.883 328.008 693.843 319.855 691.821 310.939C689.988 302.857 700.005 298.595 707.128 297.898C715.219 297.106 721.675 298.337 729.11 294.081C738.575 288.667 745.043 277.954 742.946 267.513L742.949 267.513Z" fill="#A20045" fill-opacity="0.8"/>
<g clip-path="url(#clip2_276_302)">
<path d="M637.182 351.644C641.003 357.164 643.102 363.677 644.729 370.189C648.178 383.987 649.721 398.612 646.194 412.394C644.781 417.909 641.968 423.822 636.562 425.63C631.822 427.219 626.711 425.117 622.194 422.975C616.724 420.377 611.295 417.656 606.248 414.312C599.466 409.811 592.837 402.595 594.433 394.618C595.484 389.366 599.89 385.446 604.451 382.63C609.012 379.813 614.067 377.623 617.882 373.854C627.057 364.795 623.418 353.316 627.388 342.851C631.406 344.312 634.729 348.101 637.182 351.644Z" fill="#A20045" fill-opacity="0.8"/>
</g>
<path d="M945.452 474.25C951.711 468.826 955.298 459.364 951.449 452.019C949.909 449.079 947.378 446.791 944.804 444.696C937.688 438.904 928.525 433.861 919.713 436.375C911.693 438.668 905.764 446.823 897.426 447.128C889.976 447.403 883.938 441.238 879.73 435.079C875.523 428.92 871.665 421.893 864.924 418.698C860.684 416.689 855.792 416.489 851.136 417.067C844.24 417.926 836.909 420.995 834.05 427.323C830.881 434.332 834.279 442.459 838.02 449.188C841.04 454.618 844.317 459.907 847.835 465.032C851.632 470.559 856.231 476.25 862.744 477.828C869.381 479.437 876.121 476.354 882.781 474.866C907.647 469.305 922.703 493.957 945.447 474.252L945.452 474.25Z" fill="#A20045" fill-opacity="0.8"/>
<g clip-path="url(#clip3_276_302)">
<path d="M937.588 286.517C941.858 284.645 946.582 284.066 951.244 283.807C961.123 283.256 971.317 284.101 980.274 288.266C983.858 289.934 987.531 292.6 988.062 296.489C988.529 299.9 986.426 303.085 984.373 305.864C981.885 309.228 979.317 312.548 976.374 315.53C972.413 319.535 966.618 323.086 961.375 320.977C957.923 319.588 955.82 316.102 954.49 312.654C953.161 309.206 952.324 305.504 950.246 302.437C945.253 295.062 936.934 296.042 930.302 292.005C931.824 289.477 934.846 287.718 937.588 286.517Z" fill="#A20045" fill-opacity="0.8"/>
</g>
<path d="M848.232 173.657C854.385 159.087 861.492 151.27 868.336 148.304C872.04 146.699 875.773 146.471 879.009 150.056C884.508 156.151 888.092 173.817 888.022 194.487C887.987 204.605 887.025 215.917 884.674 224.229C881.304 236.145 876.227 238.434 871.982 237.38C867.738 236.326 863.513 233.013 859.092 237.476C853.905 242.715 849.598 257.43 845.034 268.975C840.47 280.536 834.272 289.498 830.438 280.876C828.204 275.855 827.42 265.018 828.548 255.006C829.853 243.429 833.281 239.114 835.337 229.395C839.762 208.482 841.336 189.988 848.23 173.657L848.232 173.657Z" fill="#A20045" fill-opacity="0.8"/>
<path d="M1036.95 429.001C1036.48 435.203 1040.99 440.471 1044.26 445.757C1047.13 450.412 1049.17 455.587 1050.24 460.959C1050.99 464.69 1051.88 469.274 1055.48 470.433C1056.91 470.892 1058.47 470.651 1059.91 470.222C1067.36 468.013 1072.91 460.511 1072.89 452.698C1072.88 450.594 1072.53 448.39 1073.35 446.455C1074.03 444.857 1075.42 443.691 1076.79 442.621C1083.22 437.565 1090.42 432.869 1094.2 425.588C1095.36 423.369 1096.15 420.716 1095.25 418.38C1094.51 416.437 1092.74 415.111 1091.06 413.89C1086.15 410.333 1080.52 406.589 1074.55 407.606C1067.66 408.779 1063.09 415.898 1056.32 417.641C1052.01 418.749 1047.45 414.811 1043.8 415.999C1040.15 417.186 1037.2 425.683 1036.95 429.001Z" fill="#A20045" fill-opacity="0.8"/>
<path d="M1200.74 250.039C1193.86 246.137 1184.2 245.93 1178.82 251.74C1176.66 254.064 1175.41 257.072 1174.35 260.058C1171.41 268.311 1169.79 278.167 1174.87 285.296C1179.49 291.781 1188.73 294.513 1191.66 301.92C1194.29 308.538 1190.67 315.94 1186.47 321.693C1182.27 327.446 1177.18 333.161 1176.45 340.248C1176 344.706 1177.38 349.172 1179.39 353.178C1182.36 359.109 1187.46 364.727 1194.07 365.281C1201.39 365.894 1207.62 360.242 1212.48 354.727C1216.41 350.275 1220.12 345.637 1223.61 340.835C1227.37 335.654 1231.02 329.697 1230.36 323.333C1229.69 316.845 1224.77 311.764 1221.3 306.245C1208.36 285.641 1225.74 264.221 1200.74 250.043L1200.74 250.039Z" fill="#A20045" fill-opacity="0.8"/>
<g clip-path="url(#clip4_276_302)">
<path d="M1054.71 158.492C1059.31 156.442 1064.4 155.808 1069.43 155.524C1080.08 154.921 1091.07 155.846 1100.73 160.408C1104.59 162.234 1108.55 165.154 1109.13 169.414C1109.63 173.15 1107.36 176.638 1105.15 179.682C1102.47 183.366 1099.7 187.002 1096.52 190.268C1092.25 194.655 1086.01 198.544 1080.35 196.235C1076.63 194.713 1074.36 190.895 1072.93 187.119C1071.5 183.342 1070.6 179.288 1068.35 175.929C1062.97 167.851 1054 168.924 1046.85 164.503C1048.49 161.734 1051.75 159.808 1054.71 158.492Z" fill="#A20045" fill-opacity="0.8"/>
</g>
<path d="M1305.96 169.556C1305.4 166.76 1304.16 163.272 1306.57 161.527C1307.24 161.048 1308.07 160.824 1308.89 160.659C1313.78 159.674 1319.48 160.62 1322.6 164.26C1324.44 166.409 1325.16 169.207 1325.47 171.937C1326.81 183.598 1321.42 195.4 1312.72 203.891C1310.14 206.414 1307.16 208.742 1303.58 209.786C1299.5 210.978 1295.04 210.368 1291 209.044C1285.92 207.376 1275.26 202.278 1274 196.705C1272.85 191.652 1279.11 188.987 1283.57 188.552C1288.63 188.056 1292.66 188.826 1297.31 186.165C1303.23 182.78 1307.27 176.083 1305.96 169.556L1305.96 169.556Z" fill="#A20045" fill-opacity="0.8"/>
<g clip-path="url(#clip5_276_302)">
<path d="M1313.5 482.512C1310.26 483.618 1306.77 483.745 1303.34 483.641C1296.08 483.422 1288.67 482.156 1282.38 478.527C1279.87 477.074 1277.35 474.882 1277.21 471.988C1277.08 469.451 1278.82 467.241 1280.5 465.328C1282.54 463.011 1284.63 460.732 1286.97 458.725C1290.12 456.03 1294.59 453.785 1298.29 455.667C1300.73 456.907 1302.04 459.603 1302.8 462.223C1303.55 464.843 1303.93 467.618 1305.25 470.004C1308.44 475.743 1314.59 475.549 1319.18 478.936C1317.91 480.699 1315.59 481.801 1313.5 482.512Z" fill="#A20045" fill-opacity="0.8"/>
</g>
<path d="M1271.86 301.278C1271.41 307.126 1275.72 312.093 1278.83 317.076C1281.56 321.466 1283.51 326.345 1284.54 331.41C1285.25 334.928 1286.1 339.25 1289.54 340.343C1290.9 340.776 1292.39 340.548 1293.76 340.144C1300.87 338.061 1306.16 330.988 1306.14 323.621C1306.13 321.638 1305.79 319.559 1306.58 317.735C1307.23 316.228 1308.56 315.129 1309.86 314.12C1315.99 309.353 1322.86 304.925 1326.47 298.06C1327.57 295.968 1328.33 293.467 1327.47 291.264C1326.76 289.432 1325.07 288.182 1323.47 287.031C1318.78 283.677 1313.41 280.147 1307.72 281.106C1301.15 282.212 1296.79 288.924 1290.33 290.567C1286.22 291.612 1281.87 287.899 1278.39 289.019C1274.91 290.138 1272.1 298.15 1271.86 301.278Z" fill="#A20045" fill-opacity="0.8"/>
</g>
<defs>
<clipPath id="clip0_276_302">
<rect width="1512" height="1024" fill="white"/>
</clipPath>
<clipPath id="clip1_276_302">
<rect width="53.306" height="35.2361" fill="white" transform="translate(293.331 145.421)"/>
</clipPath>
<clipPath id="clip2_276_302">
<rect width="83.1212" height="55.1129" fill="white" transform="translate(639.298 340.578) rotate(79.1912)"/>
</clipPath>
<clipPath id="clip3_276_302">
<rect width="57.8234" height="37.9466" fill="white" transform="translate(930.302 283.657)"/>
</clipPath>
<clipPath id="clip4_276_302">
<rect width="62.3409" height="41.5606" fill="white" transform="translate(1046.85 155.36)"/>
</clipPath>
<clipPath id="clip5_276_302">
<rect width="42.4641" height="28.0082" fill="white" transform="translate(1318.65 485.075) rotate(-175.063)"/>
</clipPath>
</defs>
</svg>
