<svg width="1512" height="1024" viewBox="0 0 1512 1024" fill="none" xmlns="http://www.w3.org/2000/svg">
<g clip-path="url(#clip0_276_385)">
<rect width="1514" height="1024" transform="translate(-1)" fill="#FED291"/>
<g clip-path="url(#clip1_276_385)">
<path d="M1604.82 359.612C1583.39 377.265 1561.18 395.357 1535.65 403.202C1522.75 407.162 1509.13 408.467 1497.15 415.341C1486.24 421.599 1477.58 432.011 1466.54 437.97C1459.22 441.924 1451.02 443.742 1443.19 443.153C1438.25 442.781 1433.14 441.251 1430.3 437.189C1426.19 431.303 1428.58 421.825 1434.05 416.275C1439.52 410.725 1447.17 408.461 1454.43 407.801C1461.68 407.141 1468.89 407.854 1476.14 407.129C1488.83 405.863 1501.47 400.081 1511.52 390.949C1518.17 384.904 1524.22 377.13 1532.5 374.821C1538.69 373.091 1544.98 374.821 1551.27 374.052C1565.03 372.372 1575.76 359.555 1584.82 347.769" fill="#FBB03B"/>
</g>
<g clip-path="url(#clip2_276_385)">
<path d="M1366.65 51.8092C1395.47 62.5257 1424.85 71.7441 1454.62 79.4227C1476.87 85.1609 1501.6 91.5622 1514.02 110.85C1524.4 126.98 1522.68 149.383 1511.41 164.892C1500.14 180.401 1480.53 188.919 1461.31 188.558C1454.02 188.423 1446.49 187.006 1440.53 182.814C1431.94 176.779 1427.89 165.015 1430.95 155.004C1431.39 153.566 1432.08 152.035 1433.45 151.409C1435.07 150.67 1436.94 151.462 1438.53 152.258C1450.04 158.005 1461.77 164.5 1474.63 165C1487.5 165.5 1501.79 157.607 1503.37 144.877C1504.54 135.465 1498.69 126.676 1492.44 119.516C1488 114.418 1483.14 109.565 1477.33 106.092C1470.72 102.148 1463.15 100.147 1455.67 98.3126C1435.08 93.2552 1414.2 89.0618 1394.29 81.7937C1374.37 74.5262 1355.2 63.9104 1341.22 48.0084" fill="#FBB03B" fill-opacity="0.5"/>
</g>
<g clip-path="url(#clip3_276_385)">
<path d="M1511.75 268.279C1486.58 250.626 1460.5 234.287 1433.63 219.341C1413.56 208.171 1391.26 195.736 1384.13 173.896C1378.17 155.633 1385.51 134.331 1400.34 122.122C1415.18 109.913 1436.31 106.588 1454.81 111.776C1461.83 113.743 1468.75 117.012 1473.46 122.58C1480.24 130.597 1481.18 143.03 1475.68 151.972C1474.89 153.257 1473.83 154.568 1472.35 154.832C1470.6 155.142 1468.99 153.902 1467.65 152.729C1457.97 144.255 1448.27 135 1435.95 131.276C1423.63 127.553 1407.81 131.612 1403.05 143.564C1399.53 152.401 1402.97 162.401 1407.2 170.921C1410.21 176.985 1413.68 182.917 1418.42 187.75C1423.82 193.24 1430.63 197.086 1437.4 200.749C1456.04 210.84 1475.18 220.165 1492.61 232.232C1510.03 244.297 1525.89 259.422 1535.39 278.371" fill="#FBB03B" fill-opacity="0.5"/>
</g>
<g clip-path="url(#clip4_276_385)">
<path d="M1076.12 -13.8792C1045.01 -10.5476 1005.61 -21.3812 982.829 -9.51853C959.193 2.79389 976.022 28.8106 956.743 43.4453C943.436 53.5451 917.633 54.7557 894.533 54.4121C871.426 54.068 846.194 53.2483 828.751 61.001C807.337 70.522 808.007 92.4311 830.063 103.896C849.641 114.073 876.671 106.21 895.593 97.6999C911.198 90.6785 920.096 79.4456 936.894 73.336C956.62 66.1583 982.871 67.4402 1006.94 66.3012C1031.01 65.1617 1057.7 59.3337 1062.15 45.839C1065.48 35.7241 1054.89 25.0486 1053.98 14.5403C1053.73 11.7339 1054.24 8.84675 1056.7 6.55979C1059.53 3.91658 1064.57 2.39209 1069.52 1.08925C1089.2 -4.09275 1110.62 -7.40579 1132.72 -8.68348" fill="#FBB03B"/>
</g>
<g clip-path="url(#clip5_276_385)">
<path d="M251.392 1051.2C198.23 1038.98 144.437 1029.54 90.2991 1022.92C49.8389 1017.96 4.87573 1012.42 -21.4377 981.233C-43.4389 955.153 -45.6097 915.167 -29.3875 885.135C-13.1653 855.103 19.3452 835.481 53.2197 831.639C66.0758 830.177 79.6359 830.926 91.0912 836.943C107.592 845.604 117.441 865.447 114.383 883.849C113.943 886.494 113.085 889.359 110.826 890.784C108.157 892.467 104.681 891.504 101.696 890.468C80.1199 882.997 57.9867 874.255 35.2521 876.371C12.5175 878.487 -10.7818 895.765 -10.6131 918.627C-10.4885 935.531 1.8469 949.695 14.4903 960.89C23.4888 968.861 33.162 976.303 44.1846 981.086C56.7179 986.515 70.4907 988.285 84.0655 989.784C121.446 993.92 159.134 996.461 195.846 1004.66C232.552 1012.86 268.722 1027.15 297.001 1051.99" fill="#FBB03B"/>
</g>
<g clip-path="url(#clip6_276_385)">
<path d="M-54.4078 704.279C-6.03578 729.493 43.646 752.183 94.3698 772.242C132.279 787.233 174.396 803.934 192.008 840.7C206.732 871.446 198.763 910.624 175.501 935.546C152.238 960.468 115.834 971.223 82.084 966.39C69.2742 964.559 56.3399 960.414 46.7691 951.712C32.9812 939.182 28.4465 917.527 36.0405 900.52C37.1324 898.076 38.6843 895.524 41.2292 894.717C44.2363 893.765 47.3581 895.572 49.9858 897.325C68.9847 909.986 88.203 924.016 110.738 927.707C133.272 931.398 160.172 920.583 165.766 898.453C169.902 882.091 161.531 865.295 152.115 851.289C145.414 841.319 137.927 831.689 128.464 824.288C117.702 815.881 104.819 810.696 92.0588 805.824C56.9252 792.398 21.092 780.435 -12.3726 763.253C-45.8302 746.073 -77.236 723.144 -98.3483 692.014" fill="#FBB03B" fill-opacity="0.5"/>
</g>
<g clip-path="url(#clip7_276_385)">
<path d="M1528.23 859.726C1493.25 857.711 1458.15 857.825 1423.18 860.056C1410.53 860.861 1397.65 862.009 1385.99 866.921C1367.79 874.59 1354.35 890.784 1345.51 908.428C1336.66 926.072 1331.82 945.401 1326.09 964.29C1322.89 974.858 1319.35 985.543 1319.28 996.587C1319.12 1018.8 1334.64 1040.24 1355.79 1047.03C1360.72 1048.62 1365.98 1049.46 1371.08 1048.58C1383.6 1046.43 1392.44 1033.94 1393.83 1021.32C1395.23 1008.69 1390.63 996.143 1384.74 984.881C1380.95 977.629 1376.54 970.575 1374.31 962.693C1369.55 945.838 1375.81 927.135 1387.52 914.106C1399.24 901.076 1415.72 893.149 1432.62 888.555C1445.12 885.166 1458.74 883.495 1470.81 888.2C1482.7 892.832 1491.46 902.959 1502.01 910.122C1513.73 918.075 1527.9 922.357 1542.06 922.221" fill="#FBB03B" fill-opacity="0.7"/>
</g>
<g clip-path="url(#clip8_276_385)">
<path d="M-18.3426 0C27.9226 19.5605 75.5688 40.0543 110.283 76.3589C127.811 94.6934 141.876 116.905 163.105 130.794C182.434 143.44 206.211 148.123 225.192 161.289C237.787 170.025 247.847 182.368 253.862 196.461C257.652 205.347 259.806 215.674 256.022 224.559C250.542 237.443 233.765 242.667 220.336 238.697C206.907 234.726 196.637 223.758 189.202 211.896C181.766 200.034 176.501 186.907 168.966 175.111C155.791 154.479 135.667 138.376 112.647 130.043C97.4115 124.526 80.0213 121.737 69.1331 109.742C60.9794 100.763 58.0957 88.21 51.3507 78.1316C36.5845 56.0528 7.25653 50.1659 -19 46.1456" fill="#FBB03B"/>
</g>
</g>
<defs>
<clipPath id="clip0_276_385">
<rect width="1514" height="1024" fill="white" transform="translate(-1)"/>
</clipPath>
<clipPath id="clip1_276_385">
<rect width="155.391" height="120.842" fill="white" transform="translate(1605 359.292) rotate(119.732)"/>
</clipPath>
<clipPath id="clip2_276_385">
<rect width="190" height="124" fill="white" transform="translate(1513.37 195.788) rotate(-172.484)"/>
</clipPath>
<clipPath id="clip3_276_385">
<rect width="189.934" height="124.342" fill="white" transform="translate(1406.28 91.6543) rotate(22.1264)"/>
</clipPath>
<clipPath id="clip4_276_385">
<rect width="311.12" height="141.005" fill="white" transform="translate(822.712 -35) rotate(4.76438)"/>
</clipPath>
<clipPath id="clip5_276_385">
<rect width="337" height="221" fill="white" transform="translate(-40 831)"/>
</clipPath>
<clipPath id="clip6_276_385">
<rect width="337.036" height="220.644" fill="white" transform="translate(172.138 990.523) rotate(-165.39)"/>
</clipPath>
<clipPath id="clip7_276_385">
<rect width="234.3" height="176.2" fill="white" transform="translate(1295 884.399) rotate(-11.6714)"/>
</clipPath>
<clipPath id="clip8_276_385">
<rect width="277" height="240" fill="white" transform="translate(-19)"/>
</clipPath>
</defs>
</svg>
